<svg aria-hidden="true" style="width:0;height:0;position:absolute;overflow:hidden" xmlns="http://www.w3.org/2000/svg"><defs><symbol id="office" viewBox="0 0 32 32"><path d="M0 32h16V0H0v32zM10 4h4v4h-4V4zm0 8h4v4h-4v-4zm0 8h4v4h-4v-4zM2 4h4v4H2V4zm0 8h4v4H2v-4zm0 8h4v4H2v-4zm16-10h14v2H18zm0 22h4v-8h6v8h4V14H18z"/></symbol><symbol id="calendar" viewBox="0 0 32 32"><path d="M10 12h4v4h-4zm6 0h4v4h-4zm6 0h4v4h-4zM4 24h4v4H4zm6 0h4v4h-4zm6 0h4v4h-4zm-6-6h4v4h-4zm6 0h4v4h-4zm6 0h4v4h-4zM4 18h4v4H4zM26 0v2h-4V0H8v2H4V0H0v32h30V0h-4zm2 30H2V8h26v22z"/></symbol><symbol id="menu" viewBox="0 0 32 32"><path d="M2 6h28v6H2zm0 8h28v6H2zm0 8h28v6H2z"/></symbol><symbol id="cancel-circle" viewBox="0 0 32 32"><path d="M16 0C7.164 0 0 7.164 0 16s7.164 16 16 16 16-7.164 16-16S24.836 0 16 0zm0 29C8.82 29 3 23.18 3 16S8.82 3 16 3s13 5.82 13 13-5.82 13-13 13z"/><path d="m21 8-5 5-5-5-3 3 5 5-5 5 3 3 5-5 5 5 3-3-5-5 5-5z"/></symbol><symbol id="make-group" viewBox="0 0 32 32"><path d="M10 4H6c-1.1 0-2 .9-2 2v4c0 1.1.9 2 2 2h4c1.1 0 2-.9 2-2V6c0-1.1-.9-2-2-2zM22 12h4c1.1 0 2-.9 2-2V6c0-1.1-.9-2-2-2h-4c-1.1 0-2 .9-2 2v4c0 1.1.9 2 2 2zm0-6h4v4h-4V6zM10 20H6c-1.1 0-2 .9-2 2v4c0 1.1.9 2 2 2h4c1.1 0 2-.9 2-2v-4c0-1.1-.9-2-2-2zm0 6H6v-4h4v4zM26 20h-4c-1.1 0-2 .9-2 2v4c0 1.1.9 2 2 2h4c1.1 0 2-.9 2-2v-4c0-1.1-.9-2-2-2z"/><path d="M28 16h-2c-2.672 0-5.182-1.04-7.072-2.928S16 8.672 16 6V4c0-2.2-1.8-4-4-4H4C1.8 0 0 1.8 0 4v8c0 2.2 1.8 4 4 4h2c2.672 0 5.182 1.04 7.072 2.928S16 23.328 16 26v2c0 2.2 1.8 4 4 4h8c2.2 0 4-1.8 4-4v-8c0-2.2-1.8-4-4-4zm2 12c0 .53-.21 1.03-.59 1.41S28.53 30 28 30h-8c-.53 0-1.03-.21-1.41-.59S18 28.53 18 28v-2c0-6.628-5.372-12-12-12H4c-.53 0-1.03-.21-1.41-.59S2 12.528 2 12V4c0-.53.21-1.03.59-1.41S3.47 2 4 2h8c.53 0 1.03.21 1.41.59S14 3.47 14 4v2c0 6.628 5.372 12 12 12h2c.53 0 1.03.21 1.41.59s.59.88.59 1.41v8z"/></symbol></defs></svg>